<?xml version="1.0" encoding="UTF-8" standalone="no"?>
<svg
   xmlns:dc="http://purl.org/dc/elements/1.1/"
   xmlns:cc="http://creativecommons.org/ns#"
   xmlns:rdf="http://www.w3.org/1999/02/22-rdf-syntax-ns#"
   xmlns:svg="http://www.w3.org/2000/svg"
   xmlns="http://www.w3.org/2000/svg"
   xmlns:xlink="http://www.w3.org/1999/xlink"
   xmlns:sodipodi="http://sodipodi.sourceforge.net/DTD/sodipodi-0.dtd"
   xmlns:inkscape="http://www.inkscape.org/namespaces/inkscape"
   width="32"
   height="32"
   version="1.1"
   id="svg43"
   sodipodi:docname="btc3.svg"
   inkscape:version="0.92.3 (2405546, 2018-03-11)">
  <metadata
     id="metadata47">
    <rdf:RDF>
      <cc:Work
         rdf:about="">
        <dc:format>image/svg+xml</dc:format>
        <dc:type
           rdf:resource="http://purl.org/dc/dcmitype/StillImage" />
        <dc:title></dc:title>
      </cc:Work>
    </rdf:RDF>
  </metadata>
  <sodipodi:namedview
     pagecolor="#ffffff"
     bordercolor="#666666"
     borderopacity="1"
     objecttolerance="10"
     gridtolerance="10"
     guidetolerance="10"
     inkscape:pageopacity="0"
     inkscape:pageshadow="2"
     inkscape:window-width="1339"
     inkscape:window-height="742"
     id="namedview45"
     showgrid="false"
     inkscape:snap-others="false"
     inkscape:object-nodes="false"
     inkscape:snap-nodes="false"
     inkscape:snap-global="false"
     inkscape:zoom="7.375"
     inkscape:cx="16"
     inkscape:cy="11.401072"
     inkscape:window-x="27"
     inkscape:window-y="0"
     inkscape:window-maximized="1"
     inkscape:current-layer="svg43" />
  <defs
     id="defs25">
    <linearGradient
       id="c"
       x1="16"
       x2="16"
       y1="0"
       y2="30"
       gradientUnits="userSpaceOnUse">
      <stop
         offset="0%"
         stop-color="#FFF"
         stop-opacity=".5"
         id="stop2" />
      <stop
         offset="100%"
         stop-opacity=".5"
         id="stop4" />
    </linearGradient>
    <circle
       id="b"
       cx="16"
       cy="15"
       r="15" />
    <filter
       id="a"
       width="111.7%"
       height="111.7%"
       x="-5.8%"
       y="-4.2%"
       filterUnits="objectBoundingBox">
      <feOffset
         dy=".5"
         in="SourceAlpha"
         result="shadowOffsetOuter1"
         id="feOffset8" />
      <feGaussianBlur
         in="shadowOffsetOuter1"
         result="shadowBlurOuter1"
         stdDeviation=".5"
         id="feGaussianBlur10" />
      <feComposite
         in="shadowBlurOuter1"
         in2="SourceAlpha"
         operator="out"
         result="shadowBlurOuter1"
         id="feComposite12" />
      <feColorMatrix
         in="shadowBlurOuter1"
         values="0 0 0 0 0 0 0 0 0 0 0 0 0 0 0 0 0 0 0.199473505 0"
         id="feColorMatrix14" />
    </filter>
    <path
       id="e"
       d="M23.189 13.02c.314-2.096-1.283-3.223-3.465-3.975l.708-2.84-1.728-.43-.69 2.765c-.454-.114-.92-.22-1.385-.326l.695-2.783L15.596 5l-.708 2.839c-.376-.086-.746-.17-1.104-.26l.002-.009-2.384-.595-.46 1.846s1.283.294 1.256.312c.7.175.826.638.805 1.006l-.806 3.235c.048.012.11.03.18.057l-.183-.045-1.13 4.532c-.086.212-.303.531-.793.41.018.025-1.256-.313-1.256-.313l-.858 1.978 2.25.561c.418.105.828.215 1.231.318l-.715 2.872 1.727.43.708-2.84c.472.127.93.245 1.378.357l-.706 2.828 1.728.43.715-2.866c2.948.558 5.164.333 6.097-2.333.752-2.146-.037-3.385-1.588-4.192 1.13-.26 1.98-1.003 2.207-2.538zm-3.95 5.538c-.533 2.147-4.148.986-5.32.695l.95-3.805c1.172.293 4.929.872 4.37 3.11zm.535-5.569c-.487 1.953-3.495.96-4.47.717l.86-3.45c.975.243 4.118.696 3.61 2.733z" />
    <filter
       id="d"
       width="123.2%"
       height="117.5%"
       x="-11.6%"
       y="-6.3%"
       filterUnits="objectBoundingBox">
      <feOffset
         dy=".5"
         in="SourceAlpha"
         result="shadowOffsetOuter1"
         id="feOffset18" />
      <feGaussianBlur
         in="shadowOffsetOuter1"
         result="shadowBlurOuter1"
         stdDeviation=".5"
         id="feGaussianBlur20" />
      <feColorMatrix
         in="shadowBlurOuter1"
         values="0 0 0 0 0 0 0 0 0 0 0 0 0 0 0 0 0 0 0.204257246 0"
         id="feColorMatrix22" />
    </filter>
  </defs>
  <g
     id="g41"
     transform="matrix(1.0525841,0,0,1.0527303,-0.81913412,0.28241254)"
     style="fill:none;fill-rule:evenodd">
    <use
       xlink:href="#b"
       id="use27"
       style="fill:#000000;filter:url(#a)"
       x="0"
       y="0"
       width="100%"
       height="100%" />
    <use
       xlink:href="#b"
       id="use29"
       style="fill:#f7931a"
       x="0"
       y="0"
       width="100%"
       height="100%" />
    <use
       style="mix-blend-mode:soft-light;fill:url(#c)"
       xlink:href="#b"
       id="use31"
       x="0"
       y="0"
       width="100%"
       height="100%" />
    <circle
       cx="16"
       cy="15"
       r="14.5"
       id="circle33"
       style="stroke:#000000;stroke-opacity:0.097" />
    <g
       id="g39"
       style="fill-rule:nonzero">
      <use
         xlink:href="#e"
         id="use35"
         style="fill:#000000;filter:url(#d)"
         x="0"
         y="0"
         width="100%"
         height="100%" />
      <use
         xlink:href="#e"
         id="use37"
         style="fill:#ffffff;fill-rule:evenodd"
         x="0"
         y="0"
         width="100%"
         height="100%" />
    </g>
  </g>
</svg>
